<svg width="67" height="112" viewBox="0 0 67 112" fill="none" xmlns="http://www.w3.org/2000/svg">
<g filter="url(#filter0_d_517_659)">
<path d="M15.8222 13.8327H46.2242C46.2242 13.8327 54.5078 13.6003 54.5078 21.6304V43.0391C54.5078 43.0391 54.5113 51.6377 47.3165 51.6377C40.1216 51.6377 39.983 51.6377 15.8222 51.5733C15.8222 51.5733 8.16619 51.702 8.16619 43.5003V21.3622C8.16619 21.3622 8.11071 13.8363 15.8222 13.8363V13.8327Z" fill="#2789CA"/>
<mask id="mask0_517_659" style="mask-type:luminance" maskUnits="userSpaceOnUse" x="8" y="13" width="47" height="39">
<path d="M15.8225 13.8327H46.2246C46.2246 13.8327 54.5082 13.6003 54.5082 21.6304V43.0391C54.5082 43.0391 54.5116 51.6377 47.3168 51.6377C40.122 51.6377 39.9833 51.6377 15.8225 51.5733C15.8225 51.5733 8.16652 51.702 8.16652 43.5003V21.3622C8.16652 21.3622 8.11104 13.8363 15.8225 13.8363V13.8327Z" fill="white"/>
</mask>
<g mask="url(#mask0_517_659)">
<path d="M44.4231 17.2564H17.6618C10.8726 17.2564 10.9247 23.4774 10.9247 23.4774V41.7721C10.9247 48.5508 17.6618 48.4435 17.6618 48.4435C17.6618 48.4435 39.0486 48.4972 45.3836 48.4972C51.7185 48.4972 51.715 41.3931 51.715 41.3931V23.6991C51.715 17.0634 44.4266 17.2564 44.4266 17.2564H44.4231Z" fill="white"/>
</g>
<path d="M21.012 33.2595C22.8944 33.2595 24.4204 31.686 24.4204 29.745C24.4204 27.804 22.8944 26.2305 21.012 26.2305C19.1295 26.2305 17.6035 27.804 17.6035 29.745C17.6035 31.686 19.1295 33.2595 21.012 33.2595Z" fill="white"/>
<path d="M21.3596 33.2595C23.242 33.2595 24.7681 31.686 24.7681 29.745C24.7681 27.804 23.242 26.2305 21.3596 26.2305C19.4772 26.2305 17.9512 27.804 17.9512 29.745C17.9512 31.686 19.4772 33.2595 21.3596 33.2595Z" fill="white"/>
<path d="M21.012 33.2595C22.8944 33.2595 24.4204 31.686 24.4204 29.745C24.4204 27.804 22.8944 26.2305 21.012 26.2305C19.1295 26.2305 17.6035 27.804 17.6035 29.745C17.6035 31.686 19.1295 33.2595 21.012 33.2595Z" fill="#2789CA"/>
<path d="M41.3186 33.2595C43.201 33.2595 44.727 31.686 44.727 29.745C44.727 27.804 43.201 26.2305 41.3186 26.2305C39.4362 26.2305 37.9102 27.804 37.9102 29.745C37.9102 31.686 39.4362 33.2595 41.3186 33.2595Z" fill="#2789CA"/>
<path d="M41.7437 39.2962C39.7812 42.6999 35.5579 45.0381 31.3346 44.9809C27.1113 45.0345 22.8881 42.6999 20.9255 39.2962C20.4609 38.5275 20.6863 37.7695 21.2584 37.6122C21.4942 37.5407 21.723 37.4656 21.9519 37.387C22.5101 37.2047 23.1516 37.5086 23.5087 38.0556C26.6571 43.5079 36.0121 43.5079 39.1605 38.0556C39.5211 37.5121 40.1591 37.2082 40.7174 37.387C40.9462 37.4656 41.1751 37.5407 41.4109 37.6122C41.9795 37.766 42.2049 38.5275 41.7437 39.2962Z" fill="#2789CA"/>
<path d="M21.3311 54.895H10.4782C10.4366 54.895 10.395 54.895 10.3534 54.9057C9.72926 55.0165 4.83677 56.0355 4.1641 60.5511C3.44288 65.3741 5.33261 76.5004 5.33261 76.5004L6.54273 84.8558C6.54619 84.8808 6.54966 84.9022 6.54966 84.9273C6.57394 85.4314 6.98655 91.5165 11.9033 92.4496C14.8194 93.0038 16.0538 93.2684 16.5773 93.3971C16.8097 93.4543 16.99 93.6295 17.0628 93.8619C17.4581 95.1526 19.6703 99.518 22.1494 99.5001C25.4677 99.4751 35.7104 99.5108 35.7104 99.5108H41.3276C41.7229 99.5108 42.1112 99.425 42.4683 99.2534C43.6819 98.6706 46.3484 97.0403 46.6292 93.9119C46.6569 93.5937 46.8754 93.3292 47.1771 93.2505C49.0009 92.775 54.625 92.1815 55.3809 87.6302C56.272 82.253 58.7443 63.3005 58.7443 63.3005C58.7443 63.3005 60.9218 55.0738 52.5688 54.8986C47.3955 54.7877 42.9018 54.7913 41.4628 54.7877C41.0571 54.7877 40.8595 54.3229 40.8595 53.9046V50.2007C40.8595 49.7823 40.2388 50.9264 39.8297 50.9264L38.5121 50.3544C38.1306 50.3544 38.3109 49.4784 38.2763 49.8717L38.2589 54.1871C38.2277 54.5804 37.8949 54.7162 37.51 54.7162L25.3776 54.6948C24.9684 54.6948 24.646 54.5375 24.6494 54.1156V50.8263C24.639 48.3594 23.7306 49.0458 23.2694 51.2911L21.879 51.3769L21.8721 54.541C21.8408 54.7198 21.5635 54.9343 21.3346 54.9057L21.3311 54.895Z" fill="#2789CA"/>
<path d="M10.7099 57.9727H50.9385C50.9385 57.9727 50.9385 57.9727 50.942 57.9727C54.1909 58.1979 56.0633 57.9584 56.2748 61.2762C56.3407 62.2809 55.8171 65.0624 55.6403 66.5176C54.7318 74.0685 52.641 87.0146 52.641 87.0146C52.641 87.0146 52.9184 90.1787 47.3394 90.1787H17.4158C17.4158 90.1787 10.4186 90.0822 9.50321 85.9813C8.58782 81.8805 6.7189 64.7693 6.52819 63.0352C6.51432 62.9244 6.51779 62.8172 6.52819 62.7063C6.61488 61.9519 7.12805 59.1489 10.0649 58.0763C10.2695 58.0013 10.4879 57.9727 10.7029 57.9727H10.7099Z" fill="white"/>
<path d="M20.1175 94.0078C19.3755 94.0078 20.2839 97.4401 23.0682 97.6224C25.5786 97.7869 40.849 97.6224 40.849 97.6224H41.3032C41.7575 97.6224 42.2047 97.533 42.6174 97.34C43.401 96.9753 44.5383 96.1995 44.8192 94.7157C44.8885 94.3475 44.6042 94.0078 44.2436 94.0078H20.121H20.1175Z" fill="#2789CA"/>
<path d="M35.2158 63.25H29.4626V84.1482H35.2158V63.25Z" fill="#2789CA"/>
<path d="M22.855 79.5703C22.855 79.5703 14.7136 80.1733 15.0078 82.1338C15.3019 84.0944 19.0067 86.1055 30.0719 85.9033L41.1372 85.7011C41.1372 85.7011 14.6681 85.8022 19.9801 80.8268C19.9801 80.8268 22.7745 79.7328 22.7465 79.9386C22.7184 80.1444 22.855 79.5703 22.855 79.5703Z" fill="#2789CA"/>
<path d="M41.4867 77.1426V77.8791L51.666 77.1426H41.4867Z" fill="#2789CA"/>
<path d="M41.1365 66.8105H36.4128V84.1487H41.1365V66.8105Z" fill="#2789CA"/>
<path d="M28.5004 70.7676H23.6331V84.1485H28.5004V70.7676Z" fill="#2789CA"/>
</g>
<defs>
<filter id="filter0_d_517_659" x="0" y="13.832" width="67" height="97.6797" filterUnits="userSpaceOnUse" color-interpolation-filters="sRGB">
<feFlood flood-opacity="0" result="BackgroundImageFix"/>
<feColorMatrix in="SourceAlpha" type="matrix" values="0 0 0 0 0 0 0 0 0 0 0 0 0 0 0 0 0 0 127 0" result="hardAlpha"/>
<feOffset dx="2" dy="6"/>
<feGaussianBlur stdDeviation="3"/>
<feComposite in2="hardAlpha" operator="out"/>
<feColorMatrix type="matrix" values="0 0 0 0 0 0 0 0 0 0 0 0 0 0 0 0 0 0 0.25 0"/>
<feBlend mode="normal" in2="BackgroundImageFix" result="effect1_dropShadow_517_659"/>
<feBlend mode="normal" in="SourceGraphic" in2="effect1_dropShadow_517_659" result="shape"/>
</filter>
</defs>
</svg>
